<svg width="234" height="91" viewBox="0 0 234 91" fill="none" xmlns="http://www.w3.org/2000/svg">
<rect y="0.72998" width="234" height="90" rx="4" fill="#353945"/>
<path d="M111.505 50.0892L111.493 50.1008C111.336 49.7567 111.237 49.3658 111.196 48.9342C111.237 49.36 111.347 49.745 111.505 50.0892Z" fill="white"/>
<path d="M115.25 45.055C116.017 45.055 116.638 44.4334 116.638 43.6667C116.638 42.8999 116.017 42.2783 115.25 42.2783C114.483 42.2783 113.862 42.8999 113.862 43.6667C113.862 44.4334 114.483 45.055 115.25 45.055Z" fill="white"/>
<path d="M119.444 40.1667H114.556C112.432 40.1667 111.167 41.4325 111.167 43.5558V48.4442C111.167 49.08 111.277 49.6342 111.493 50.1008C111.995 51.2092 113.068 51.8333 114.556 51.8333H119.444C121.567 51.8333 122.833 50.5675 122.833 48.4442V47.1083V43.5558C122.833 41.4325 121.567 40.1667 119.444 40.1667ZM121.882 46.2917C121.427 45.9008 120.692 45.9008 120.237 46.2917L117.811 48.3742C117.356 48.765 116.621 48.765 116.166 48.3742L115.967 48.2108C115.553 47.8492 114.894 47.8142 114.427 48.1292L112.246 49.5933C112.117 49.2667 112.042 48.8875 112.042 48.4442V43.5558C112.042 41.9108 112.911 41.0417 114.556 41.0417H119.444C121.089 41.0417 121.958 41.9108 121.958 43.5558V46.3558L121.882 46.2917Z" fill="white"/>
</svg>
